#define c5c53f16b3b44294a0d30ee1ec23d4a3wSZadjHqPFe0bqN6_width 128
#define c5c53f16b3b44294a0d30ee1ec23d4a3wSZadjHqPFe0bqN6_height 128
static char c5c53f16b3b44294a0d30ee1ec23d4a3wSZadjHqPFe0bqN6_bits[] = {
  0x00, 0x00, 0x00, 0x00, 0x00, 0x00, 0x00, 0x00, 0x00, 0x00, 0x00, 0x00, 
  0x00, 0x00, 0x00, 0x00, 0x00, 0x00, 0x00, 0x00, 0x00, 0x00, 0x00, 0x00, 
  0x00, 0x00, 0x00, 0x00, 0x00, 0x00, 0x00, 0x00, 0x00, 0x00, 0x00, 0x00, 
  0x00, 0x00, 0x00, 0x00, 0x00, 0x00, 0x00, 0x00, 0x00, 0x00, 0x00, 0x00, 
  0x00, 0x00, 0x00, 0x00, 0x00, 0x00, 0x00, 0x00, 0x00, 0x00, 0x00, 0x00, 
  0x00, 0x00, 0x00, 0x00, 0x00, 0x00, 0x00, 0x00, 0x00, 0x00, 0x00, 0x00, 
  0x00, 0x00, 0x00, 0x00, 0x00, 0x00, 0x00, 0x00, 0x00, 0x00, 0x00, 0x00, 
  0x00, 0x00, 0x00, 0x00, 0x00, 0x00, 0x00, 0x00, 0x00, 0x00, 0x00, 0x00, 
  0x00, 0x00, 0x00, 0x00, 0x00, 0x00, 0x00, 0x00, 0x00, 0x00, 0x00, 0x00, 
  0x00, 0x00, 0x00, 0x00, 0x00, 0x00, 0x00, 0x00, 0x00, 0x00, 0x00, 0x00, 
  0x00, 0x00, 0x00, 0x00, 0x00, 0x00, 0x00, 0x00, 0x00, 0x00, 0x00, 0x00, 
  0x00, 0x00, 0x00, 0x00, 0x00, 0x00, 0x00, 0x00, 0x00, 0x00, 0x00, 0x00, 
  0x00, 0x00, 0x00, 0x00, 0x00, 0x00, 0x00, 0x00, 0x00, 0x00, 0x00, 0x00, 
  0x00, 0x00, 0x00, 0x00, 0x00, 0x00, 0x00, 0x00, 0x00, 0x00, 0x00, 0x00, 
  0x00, 0x00, 0x00, 0x00, 0x00, 0x00, 0x00, 0x00, 0x00, 0x00, 0x00, 0x00, 
  0x00, 0x00, 0x00, 0x00, 0x00, 0x00, 0x00, 0x00, 0x00, 0x00, 0x00, 0x00, 
  0x00, 0x00, 0x00, 0x00, 0x00, 0x00, 0x00, 0x00, 0x00, 0x00, 0x00, 0x00, 
  0x00, 0x00, 0x00, 0x00, 0x00, 0x00, 0x00, 0x00, 0x00, 0x00, 0x00, 0x80, 
  0x02, 0x00, 0x00, 0x00, 0x00, 0x00, 0x00, 0x00, 0x00, 0x00, 0x00, 0x00, 
  0x00, 0x00, 0x00, 0xFC, 0x3F, 0x00, 0x00, 0x00, 0x00, 0x00, 0x00, 0x00, 
  0x00, 0x00, 0x00, 0x00, 0x00, 0x00, 0x80, 0xFF, 0xFF, 0x01, 0x00, 0x00, 
  0x00, 0x00, 0x00, 0x00, 0x00, 0x00, 0x00, 0x00, 0x00, 0x00, 0xE0, 0x1F, 
  0xF4, 0x0F, 0x00, 0x00, 0x00, 0x00, 0x00, 0x00, 0x00, 0x00, 0x00, 0x00, 
  0x00, 0x00, 0xFC, 0x03, 0xC0, 0x3F, 0x00, 0x00, 0x00, 0x00, 0x00, 0x00, 
  0x00, 0x00, 0x00, 0x00, 0x00, 0x80, 0x7F, 0x00, 0x00, 0xFE, 0x00, 0x00, 
  0x00, 0x00, 0x00, 0x00, 0x00, 0x00, 0x00, 0x00, 0x00, 0xE0, 0x1F, 0x00, 
  0x00, 0xF0, 0x07, 0x00, 0x00, 0x00, 0x00, 0x00, 0x00, 0x00, 0x00, 0x00, 
  0x00, 0xFC, 0x03, 0x00, 0x00, 0xC0, 0x3F, 0x00, 0x00, 0x00, 0x00, 0x00, 
  0x00, 0x00, 0x00, 0x00, 0x00, 0x7F, 0x00, 0x00, 0x00, 0x00, 0xFF, 0x00, 
  0x00, 0x00, 0x00, 0x00, 0x00, 0x00, 0x00, 0x00, 0xE0, 0x1F, 0x00, 0x00, 
  0x00, 0x00, 0xF8, 0x07, 0x00, 0x00, 0x00, 0x00, 0x00, 0x00, 0x00, 0x00, 
  0xF8, 0x03, 0x00, 0x00, 0x00, 0x00, 0xC0, 0x1F, 0x00, 0x00, 0x00, 0x00, 
  0x00, 0x00, 0x00, 0x00, 0xFF, 0x00, 0x00, 0x00, 0x00, 0x00, 0x00, 0xFF, 
  0x00, 0x00, 0x00, 0x00, 0x00, 0x00, 0x00, 0xC0, 0x1F, 0x00, 0x00, 0x00, 
  0x00, 0x00, 0x00, 0xF8, 0x07, 0x00, 0x00, 0x00, 0x00, 0x00, 0x00, 0xF8, 
  0x07, 0x00, 0x00, 0x00, 0x00, 0x00, 0x00, 0xE0, 0x1F, 0x00, 0x00, 0x00, 
  0x00, 0x00, 0x00, 0xFE, 0x00, 0x00, 0x00, 0x00, 0x00, 0x00, 0x00, 0x00, 
  0x7F, 0x00, 0x00, 0x00, 0x00, 0x00, 0xC0, 0x1F, 0x00, 0x00, 0x00, 0xFE, 
  0x3F, 0x00, 0x00, 0x00, 0xF8, 0x03, 0x00, 0x00, 0x00, 0x00, 0xF8, 0x07, 
  0x00, 0x00, 0x80, 0xFF, 0xFF, 0x01, 0x00, 0x00, 0xE0, 0x1F, 0x00, 0x00, 
  0x00, 0x00, 0xFE, 0x01, 0x00, 0x00, 0xE0, 0xFF, 0xFF, 0x07, 0x00, 0x00, 
  0x80, 0x7F, 0x00, 0x00, 0x00, 0xC0, 0x3F, 0x00, 0x00, 0x00, 0xF0, 0x77, 
  0xFB, 0x0F, 0x00, 0x00, 0x00, 0xFC, 0x01, 0x00, 0x00, 0xE0, 0x87, 0x00, 
  0x00, 0x00, 0x78, 0xF7, 0xF9, 0x1F, 0x00, 0x00, 0x00, 0xF0, 0x07, 0x00, 
  0x00, 0xF0, 0x01, 0x00, 0x00, 0x00, 0xF8, 0xAD, 0x4F, 0x1F, 0x00, 0x00, 
  0x00, 0x84, 0x0F, 0x00, 0x00, 0x78, 0x10, 0x00, 0x00, 0x00, 0xFC, 0xA7, 
  0xF9, 0x3E, 0x00, 0x00, 0x00, 0x00, 0x1E, 0x00, 0x00, 0xF8, 0x01, 0x00, 
  0x00, 0x00, 0x78, 0xFD, 0xAF, 0x1E, 0x00, 0x00, 0x20, 0x80, 0x1F, 0x00, 
  0x00, 0xFC, 0x07, 0x81, 0x00, 0x00, 0xF8, 0x76, 0xDC, 0x1F, 0x00, 0x00, 
  0x01, 0xE0, 0x3F, 0x00, 0x00, 0xDE, 0x3F, 0x10, 0x00, 0x00, 0xF0, 0xEF, 
  0xFB, 0x0F, 0x00, 0x00, 0x00, 0xFC, 0x7B, 0x00, 0x00, 0x0E, 0xFF, 0x00, 
  0x00, 0x00, 0xE0, 0xFF, 0xFF, 0x07, 0x00, 0x00, 0x40, 0xFF, 0x70, 0x00, 
  0x00, 0x0E, 0xF8, 0x07, 0x88, 0x00, 0x80, 0xFF, 0xFF, 0x01, 0x00, 0x20, 
  0xE0, 0x1F, 0x70, 0x00, 0x00, 0x0E, 0xE0, 0x1F, 0x04, 0x00, 0x00, 0xF8, 
  0x0F, 0x00, 0x00, 0x00, 0xF8, 0x07, 0x70, 0x00, 0x00, 0x06, 0x00, 0xFF, 
  0x00, 0x00, 0x00, 0x00, 0x00, 0x00, 0x04, 0x04, 0xFF, 0x00, 0xE0, 0x00, 
  0x00, 0x07, 0x00, 0xF8, 0x03, 0x40, 0x02, 0x00, 0x00, 0x00, 0x80, 0xE0, 
  0x1F, 0x00, 0x60, 0x00, 0x00, 0x0E, 0x00, 0xE0, 0x3F, 0x04, 0x00, 0x00, 
  0x00, 0x00, 0x00, 0xF8, 0x07, 0x00, 0x70, 0x00, 0x00, 0x07, 0x00, 0x00, 
  0xFF, 0x40, 0x01, 0x00, 0x00, 0x10, 0x00, 0xFF, 0x01, 0x00, 0xF0, 0x00, 
  0x00, 0x0E, 0x00, 0x00, 0xFC, 0x07, 0x00, 0x00, 0x00, 0x00, 0xE0, 0x3F, 
  0x00, 0x00, 0x60, 0x00, 0x00, 0x06, 0x00, 0x00, 0xE0, 0x0F, 0x40, 0x00, 
  0x10, 0x01, 0xF8, 0x07, 0x00, 0x00, 0x60, 0x00, 0x00, 0x07, 0x00, 0x00, 
  0x80, 0xFF, 0x20, 0x00, 0x00, 0x00, 0xFF, 0x01, 0x00, 0x1E, 0x70, 0x00, 
  0x00, 0x0F, 0x00, 0x00, 0x00, 0xFC, 0x03, 0x10, 0x00, 0xC0, 0x3F, 0x00, 
  0x00, 0x3F, 0xF0, 0x00, 0x00, 0x06, 0x00, 0x00, 0x00, 0xE0, 0x1F, 0x80, 
  0x84, 0xF8, 0x07, 0x00, 0x80, 0x7F, 0x60, 0x00, 0x00, 0x06, 0x00, 0x00, 
  0x00, 0x80, 0xFF, 0x00, 0x00, 0xFE, 0x01, 0x00, 0xC0, 0xFF, 0x60, 0x00, 
  0x00, 0x07, 0x00, 0x00, 0x00, 0x00, 0xFC, 0x03, 0xC0, 0x3F, 0x00, 0x00, 
  0xC0, 0xFF, 0x70, 0x00, 0x00, 0x0F, 0x00, 0x00, 0x00, 0x00, 0xF0, 0x1F, 
  0xF8, 0x07, 0x00, 0x00, 0xC0, 0xFF, 0xE0, 0x00, 0x00, 0x06, 0x00, 0x00, 
  0x00, 0x00, 0x80, 0x7F, 0xFE, 0x01, 0x00, 0x00, 0xE0, 0xFF, 0x70, 0x00, 
  0x00, 0x06, 0x00, 0x00, 0x00, 0x00, 0x00, 0xFC, 0x3F, 0x00, 0x00, 0x00, 
  0xE0, 0xFB, 0x60, 0x00, 0x00, 0x07, 0x00, 0x00, 0x00, 0x00, 0x00, 0xF0, 
  0x0F, 0x00, 0x00, 0x00, 0xE0, 0xFF, 0xE0, 0x00, 0x00, 0x0E, 0x80, 0x0F, 
  0x00, 0x00, 0x00, 0xC0, 0x03, 0x00, 0x00, 0x00, 0xE0, 0xEF, 0x70, 0x00, 
  0x00, 0x06, 0x80, 0x3F, 0x00, 0x00, 0x00, 0x80, 0x01, 0x00, 0x00, 0x00, 
  0xE0, 0xFE, 0xE0, 0x00, 0x00, 0x06, 0xC0, 0x3F, 0x00, 0x00, 0x00, 0xC0, 
  0x03, 0x00, 0x00, 0x00, 0xE0, 0xF7, 0x60, 0x00, 0x00, 0x0F, 0xE0, 0x7F, 
  0x00, 0x00, 0x00, 0x80, 0x01, 0x00, 0x00, 0x00, 0xE0, 0xFF, 0x70, 0x00, 
  0x00, 0x0E, 0xE0, 0x7F, 0x00, 0x00, 0x00, 0xC0, 0x01, 0x00, 0x00, 0x00, 
  0xE0, 0x7F, 0xF0, 0x00, 0x00, 0x06, 0xE0, 0xFB, 0x00, 0x00, 0x00, 0x80, 
  0x03, 0x00, 0x00, 0x00, 0xE0, 0x7F, 0x60, 0x00, 0x00, 0x07, 0xE0, 0xFF, 
  0x00, 0x00, 0x00, 0x80, 0x03, 0x00, 0x00, 0x00, 0xC0, 0x3F, 0x60, 0x00, 
  0x00, 0x0E, 0xE0, 0xFE, 0x00, 0x00, 0x00, 0xC0, 0x01, 0x00, 0x00, 0x00, 
  0xC0, 0x1F, 0x70, 0x00, 0x00, 0x07, 0xE0, 0xFE, 0x00, 0x00, 0x00, 0xC0, 
  0x01, 0x00, 0x00, 0x00, 0x00, 0x0F, 0xF0, 0x00, 0x00, 0x0E, 0xE0, 0xFF, 
  0x00, 0x00, 0x00, 0x80, 0x03, 0x00, 0x00, 0x00, 0x00, 0x00, 0x60, 0x00, 
  0x00, 0x06, 0xE0, 0xFB, 0x01, 0x00, 0x00, 0xC0, 0x03, 0x00, 0x00, 0x00, 
  0x00, 0x00, 0x60, 0x00, 0x00, 0x07, 0xE0, 0xFF, 0x00, 0x00, 0x00, 0x80, 
  0x01, 0x00, 0x00, 0x00, 0x00, 0x00, 0x70, 0x00, 0x00, 0x0E, 0xC0, 0xFB, 
  0x00, 0x00, 0x00, 0x80, 0x01, 0x00, 0x00, 0x78, 0x00, 0x00, 0xE0, 0x00, 
  0x00, 0x06, 0xC0, 0xFF, 0x00, 0x00, 0x00, 0xC0, 0x03, 0x00, 0x00, 0xFC, 
  0x00, 0x00, 0x60, 0x00, 0x00, 0x06, 0x80, 0xFF, 0x00, 0x00, 0x00, 0xC0, 
  0x01, 0x00, 0x00, 0xFE, 0x01, 0x00, 0x70, 0x00, 0x00, 0x0F, 0x80, 0x7F, 
  0x00, 0x00, 0x00, 0x80, 0x03, 0x00, 0x00, 0xFE, 0x03, 0x00, 0xE0, 0x00, 
  0x00, 0x0F, 0x00, 0x3F, 0x00, 0x00, 0x00, 0xC0, 0x03, 0x00, 0x00, 0xBF, 
  0x03, 0x00, 0x70, 0x00, 0x00, 0x06, 0x00, 0x1E, 0x00, 0x00, 0x00, 0x80, 
  0x01, 0x00, 0x00, 0xFF, 0x03, 0x00, 0xE0, 0x00, 0x00, 0x06, 0x00, 0x00, 
  0x00, 0x00, 0x00, 0x80, 0x01, 0x00, 0x80, 0xFF, 0x03, 0x00, 0x60, 0x00, 
  0x00, 0x07, 0x00, 0x00, 0x00, 0x00, 0x00, 0xC0, 0x03, 0x00, 0x80, 0xDF, 
  0x03, 0x00, 0x70, 0x00, 0x00, 0x0F, 0x00, 0x00, 0x00, 0x00, 0x00, 0xC0, 
  0x01, 0x00, 0x80, 0xEF, 0x07, 0x00, 0xF0, 0x00, 0x00, 0x06, 0x00, 0x00, 
  0x00, 0x00, 0x00, 0x80, 0x03, 0x00, 0x80, 0xFF, 0x03, 0x00, 0x60, 0x00, 
  0x00, 0x06, 0x00, 0x00, 0x00, 0x00, 0x00, 0xC0, 0x03, 0x00, 0x80, 0xFF, 
  0x03, 0x00, 0x60, 0x00, 0x00, 0x07, 0x00, 0x00, 0x00, 0x00, 0x00, 0x80, 
  0x01, 0x00, 0x80, 0xFB, 0x03, 0x00, 0x70, 0x00, 0x00, 0x0E, 0x00, 0x00, 
  0x00, 0x07, 0x00, 0x80, 0x01, 0x00, 0x80, 0xFF, 0x03, 0x00, 0xF0, 0x00, 
  0x00, 0x06, 0x00, 0x00, 0x80, 0x1F, 0x00, 0xC0, 0x03, 0x00, 0x80, 0xFF, 
  0x01, 0x00, 0x60, 0x00, 0x00, 0x07, 0x00, 0x00, 0xC0, 0x3F, 0x00, 0xC0, 
  0x01, 0x00, 0x00, 0xEF, 0x01, 0x00, 0x60, 0x00, 0x00, 0x0E, 0x00, 0x00, 
  0xE0, 0x3F, 0x00, 0x80, 0x03, 0x00, 0x00, 0xFF, 0x00, 0x00, 0x70, 0x00, 
  0x00, 0x07, 0x00, 0x00, 0xE0, 0x7F, 0x00, 0xC0, 0x03, 0x00, 0x00, 0x7E, 
  0x00, 0x00, 0xE0, 0x00, 0x00, 0x0E, 0x00, 0x00, 0xE0, 0x77, 0x00, 0x80, 
  0x01, 0x00, 0x00, 0x3E, 0x00, 0x00, 0x60, 0x00, 0x00, 0x06, 0x00, 0x00, 
  0xE0, 0xFE, 0x00, 0x80, 0x01, 0x00, 0x00, 0x00, 0x00, 0x00, 0x70, 0x00, 
  0x00, 0x07, 0x00, 0x00, 0xE0, 0xFF, 0x00, 0xC0, 0x03, 0x00, 0x00, 0x00, 
  0x00, 0x00, 0xE0, 0x00, 0x00, 0x06, 0x00, 0x00, 0xF0, 0xFF, 0x00, 0xC0, 
  0x01, 0x00, 0x00, 0x00, 0x00, 0x00, 0x70, 0x00, 0x00, 0x0E, 0x00, 0x00, 
  0xE0, 0xFE, 0x00, 0x80, 0x03, 0xF0, 0x00, 0x00, 0x00, 0x00, 0xE0, 0x00, 
  0x00, 0x07, 0x00, 0x00, 0xE0, 0xF7, 0x00, 0xC0, 0x03, 0xFC, 0x01, 0x00, 
  0x00, 0x00, 0x70, 0x00, 0x00, 0x0E, 0x00, 0x00, 0xE0, 0xFF, 0x00, 0x80, 
  0x01, 0xFE, 0x03, 0x00, 0x00, 0x00, 0x60, 0x00, 0x00, 0x86, 0x00, 0x00, 
  0xE0, 0xFD, 0x00, 0x80, 0x01, 0xBE, 0x03, 0x00, 0x00, 0x00, 0xE4, 0x00, 
  0x00, 0x0F, 0x00, 0x00, 0xE0, 0xFF, 0x00, 0xC0, 0x03, 0xFF, 0x03, 0x00, 
  0x00, 0x00, 0x70, 0x00, 0x00, 0x0E, 0x00, 0x00, 0xC0, 0x7F, 0x00, 0xC0, 
  0x01, 0xFF, 0x07, 0x00, 0x00, 0x20, 0x70, 0x00, 0x00, 0x1E, 0x02, 0x00, 
  0x80, 0x7F, 0x00, 0x80, 0x03, 0xDF, 0x07, 0x00, 0x00, 0x00, 0x71, 0x00, 
  0x00, 0x1E, 0x00, 0x00, 0x80, 0x7F, 0x00, 0xC0, 0x03, 0xB7, 0x07, 0x00, 
  0x00, 0x02, 0x3A, 0x00, 0x00, 0x1C, 0x42, 0x00, 0x00, 0x3E, 0x00, 0x80, 
  0x01, 0xFF, 0x07, 0x00, 0x04, 0x00, 0x38, 0x00, 0x00, 0x78, 0x41, 0x80, 
  0x00, 0x04, 0x00, 0x80, 0x81, 0xDF, 0x07, 0x00, 0x00, 0x20, 0x1E, 0x00, 
  0x00, 0x70, 0x00, 0x04, 0x00, 0x00, 0x00, 0xC0, 0x83, 0xFF, 0x07, 0x80, 
  0x80, 0x00, 0x0F, 0x00, 0x00, 0xF0, 0x03, 0x80, 0x00, 0x00, 0x00, 0xC0, 
  0x81, 0xBF, 0x07, 0x00, 0x02, 0xC0, 0x0F, 0x00, 0x00, 0xC0, 0x1F, 0x01, 
  0x48, 0x00, 0x00, 0x80, 0x03, 0xFF, 0x03, 0x00, 0x80, 0xF8, 0x03, 0x00, 
  0x00, 0x80, 0x7F, 0x00, 0x04, 0x00, 0x00, 0xC0, 0x03, 0xFF, 0x23, 0x00, 
  0x00, 0xFF, 0x00, 0x00, 0x00, 0x00, 0xFC, 0x05, 0x00, 0x00, 0x00, 0x80, 
  0x01, 0xFF, 0x01, 0x12, 0xC0, 0x3F, 0x00, 0x00, 0x00, 0x00, 0xF0, 0x0F, 
  0x08, 0x00, 0x00, 0x80, 0x01, 0xFE, 0x01, 0x00, 0xF0, 0x07, 0x00, 0x00, 
  0x00, 0x00, 0x80, 0x7F, 0x00, 0x81, 0x00, 0xC0, 0x03, 0xFE, 0x08, 0x20, 
  0xFF, 0x01, 0x00, 0x00, 0x00, 0x00, 0x00, 0xFE, 0x01, 0x00, 0x01, 0xC0, 
  0x01, 0x7C, 0x40, 0x82, 0x3F, 0x00, 0x00, 0x00, 0x00, 0x00, 0x00, 0xF0, 
  0x8F, 0x10, 0x40, 0x80, 0x03, 0x00, 0x00, 0xF0, 0x0F, 0x00, 0x00, 0x00, 
  0x00, 0x00, 0x00, 0x80, 0x3F, 0x00, 0x00, 0x80, 0x03, 0x40, 0x00, 0xFE, 
  0x01, 0x00, 0x00, 0x00, 0x00, 0x00, 0x00, 0x00, 0xFE, 0x01, 0x00, 0xC0, 
  0x03, 0x04, 0xC0, 0x7F, 0x00, 0x00, 0x00, 0x00, 0x00, 0x00, 0x00, 0x00, 
  0xF0, 0x0F, 0x00, 0xC0, 0x01, 0x04, 0xF0, 0x0F, 0x00, 0x00, 0x00, 0x00, 
  0x00, 0x00, 0x00, 0x00, 0xC0, 0x7F, 0x28, 0xC8, 0x43, 0x00, 0xFE, 0x01, 
  0x00, 0x00, 0x00, 0x00, 0x00, 0x00, 0x00, 0x00, 0x00, 0xFE, 0x00, 0xC0, 
  0x01, 0x80, 0x7F, 0x00, 0x00, 0x00, 0x00, 0x00, 0x00, 0x00, 0x00, 0x00, 
  0x00, 0xF8, 0x0F, 0x80, 0x83, 0xF0, 0x1F, 0x00, 0x00, 0x00, 0x00, 0x00, 
  0x00, 0x00, 0x00, 0x00, 0x00, 0xC0, 0x3F, 0xC4, 0x03, 0xFC, 0x03, 0x00, 
  0x00, 0x00, 0x00, 0x00, 0x00, 0x00, 0x00, 0x00, 0x00, 0x00, 0xFF, 0x82, 
  0x83, 0xFF, 0x00, 0x00, 0x00, 0x00, 0x00, 0x00, 0x00, 0x00, 0x00, 0x00, 
  0x20, 0x48, 0xF8, 0xC7, 0xF1, 0x1F, 0x02, 0x00, 0x00, 0x00, 0x00, 0x00, 
  0x00, 0x00, 0x00, 0x00, 0x01, 0x00, 0xE0, 0xFF, 0xFF, 0x07, 0x80, 0x20, 
  0x00, 0x00, 0x00, 0x00, 0x00, 0x00, 0x00, 0x20, 0x08, 0x02, 0x00, 0xFF, 
  0xFF, 0x00, 0x10, 0x02, 0x02, 0x00, 0x00, 0x00, 0x00, 0x00, 0x00, 0x00, 
  0x40, 0x20, 0x24, 0xF8, 0x0F, 0x84, 0x04, 0x40, 0x00, 0x00, 0x00, 0x00, 
  0x00, 0x00, 0x00, 0x04, 0x20, 0x80, 0x00, 0x00, 0x02, 0x40, 0x04, 0x02, 
  0x20, 0x00, 0x00, 0x00, 0x00, 0x00, 0x00, 0x80, 0x01, 0x08, 0x22, 0x21, 
  0x20, 0x04, 0x80, 0x20, 0x00, 0x00, 0x00, 0x00, 0x00, 0x00, 0x00, 0x00, 
  0x00, 0x21, 0x00, 0x08, 0x00, 0x00, 0x10, 0x00, 0x04, 0x00, 0x00, 0x00, 
  0x00, 0x00, 0x00, 0x00, 0x40, 0x00, 0x88, 0x80, 0x44, 0x21, 0x01, 0x04, 
  0x00, 0x00, 0x00, 0x00, 0x00, 0x00, 0x00, 0x00, 0x00, 0x00, 0x40, 0x00, 
  0x01, 0x00, 0x00, 0x00, 0x00, 0x00, 0x00, 0x00, 0x00, 0x00, 0x00, 0x00, 
  0x00, 0x00, 0x00, 0x00, 0x00, 0x00, 0x00, 0x00, 0x00, 0x00, 0x00, 0x00, 
  0x00, 0x00, 0x00, 0x00, 0x00, 0x00, 0x00, 0x00, 0x00, 0x00, 0x00, 0x00, 
  0x00, 0x00, 0x00, 0x00, 0x00, 0x00, 0x00, 0x00, 0x00, 0x00, 0x00, 0x00, 
  0x00, 0x00, 0x00, 0x00, 0x00, 0x00, 0x00, 0x00, };
